<svg width="63" height="62" viewBox="0 0 63 62" fill="none" xmlns="http://www.w3.org/2000/svg">
<g id="Logos/bootstrap-original-wordmark">
<path id="Vector" d="M7.37549 7.33824C7.25884 4.03722 9.87187 0.993408 13.4043 0.993408H49.5998C53.1322 0.993408 55.7452 4.03722 55.6286 7.33824C55.5163 10.509 55.662 14.6165 56.7124 17.9654C57.7661 21.3251 59.5429 23.4481 62.4532 23.7213V26.815C59.5429 27.0877 57.7661 29.2112 56.7124 32.5708C55.662 35.9198 55.5163 40.0272 55.6286 43.198C55.7452 46.499 53.1322 49.5423 49.5998 49.5423H13.4043C9.87187 49.5423 7.25884 46.4985 7.37549 43.198C7.48771 40.0272 7.34202 35.9198 6.2912 32.5708C5.23792 29.2116 3.4562 27.0881 0.545898 26.815V23.7213C3.4562 23.4485 5.23792 21.3251 6.2912 17.9654C7.34202 14.6165 7.48722 10.509 7.37549 7.33824Z" fill="url(#paint0_linear_446_883)"/>
<g id="Vector_2" filter="url(#filter0_d_446_883)">
<path d="M33.0306 38.35C38.7493 38.35 42.1954 35.5944 42.1954 31.0492C42.1954 27.6136 39.7366 25.1263 36.0855 24.7326V24.5894C38.7679 24.16 40.8729 21.7085 40.8729 18.9708C40.8729 15.0699 37.7435 12.5288 32.9747 12.5288H22.2451V38.35H33.0306ZM26.4177 15.8035H31.9689C34.9866 15.8035 36.7002 17.1276 36.7002 19.5254C36.7002 22.0843 34.7071 23.5158 31.0934 23.5158H26.4177V15.8035ZM26.4177 35.0753V26.5756H31.9315C35.8806 26.5756 37.9297 28.0071 37.9297 30.7987C37.9297 33.5901 35.9366 35.0753 32.1737 35.0753H26.4177Z" fill="url(#paint1_linear_446_883)"/>
<path d="M33.0306 38.35C38.7493 38.35 42.1954 35.5944 42.1954 31.0492C42.1954 27.6136 39.7366 25.1263 36.0855 24.7326V24.5894C38.7679 24.16 40.8729 21.7085 40.8729 18.9708C40.8729 15.0699 37.7435 12.5288 32.9747 12.5288H22.2451V38.35H33.0306ZM26.4177 15.8035H31.9689C34.9866 15.8035 36.7002 17.1276 36.7002 19.5254C36.7002 22.0843 34.7071 23.5158 31.0934 23.5158H26.4177V15.8035ZM26.4177 35.0753V26.5756H31.9315C35.8806 26.5756 37.9297 28.0071 37.9297 30.7987C37.9297 33.5901 35.9366 35.0753 32.1737 35.0753H26.4177Z" stroke="white" stroke-width="0.24566"/>
</g>
</g>
<defs>
<filter id="filter0_d_446_883" x="18.1915" y="9.45809" width="28.0574" height="33.9279" filterUnits="userSpaceOnUse" color-interpolation-filters="sRGB">
<feFlood flood-opacity="0" result="BackgroundImageFix"/>
<feColorMatrix in="SourceAlpha" type="matrix" values="0 0 0 0 0 0 0 0 0 0 0 0 0 0 0 0 0 0 127 0" result="hardAlpha"/>
<feOffset dy="0.98264"/>
<feGaussianBlur stdDeviation="1.96528"/>
<feColorMatrix type="matrix" values="0 0 0 0 0 0 0 0 0 0 0 0 0 0 0 0 0 0 0.15 0"/>
<feBlend mode="normal" in2="BackgroundImageFix" result="effect1_dropShadow_446_883"/>
<feBlend mode="normal" in="SourceGraphic" in2="effect1_dropShadow_446_883" result="shape"/>
</filter>
<linearGradient id="paint0_linear_446_883" x1="9.74516" y1="2.27828" x2="63.1692" y2="45.3709" gradientUnits="userSpaceOnUse">
<stop stop-color="#9013FE"/>
<stop offset="1" stop-color="#6610F2"/>
</linearGradient>
<linearGradient id="paint1_linear_446_883" x1="24.1328" y1="14.228" x2="35.9394" y2="34.5186" gradientUnits="userSpaceOnUse">
<stop stop-color="white"/>
<stop offset="1" stop-color="#F1E5FC"/>
</linearGradient>
</defs>
</svg>
