<svg width="53" height="54" viewBox="0 0 53 54" fill="none" xmlns="http://www.w3.org/2000/svg">
<g id="css" clip-path="url(#clip0_446_893)">
<path id="Vector" d="M9.38542 0.500004H43.6146C44.8474 0.498813 46.0684 0.746985 47.2076 1.23032C48.3468 1.71365 49.3819 2.42266 50.2537 3.31676C51.1254 4.21086 51.8167 5.2725 52.2879 6.44093C52.7592 7.60935 53.0012 8.86162 53 10.1261V43.8739C53.0012 45.1384 52.7592 46.3906 52.2879 47.5591C51.8167 48.7275 51.1254 49.7891 50.2537 50.6832C49.3819 51.5773 48.3468 52.2864 47.2076 52.7697C46.0684 53.253 44.8474 53.5012 43.6146 53.5H9.38542C8.15258 53.5012 6.93162 53.253 5.7924 52.7697C4.65319 52.2864 3.61808 51.5773 2.74634 50.6832C1.87459 49.7891 1.18331 48.7275 0.71206 47.5591C0.24081 46.3906 -0.00115779 45.1384 4.16508e-06 43.8739V10.1261C-0.00115779 8.86162 0.24081 7.60935 0.71206 6.44093C1.18331 5.2725 1.87459 4.21086 2.74634 3.31676C3.61808 2.42266 4.65319 1.71365 5.7924 1.23032C6.93162 0.746985 8.15258 0.498813 9.38542 0.500004Z" fill="#2965F1"/>
<g id="Group 2">
<path id="Vector_2" d="M12.9729 22.3486L13.4944 28.168H26.5172V22.3486H12.9729ZM11.9248 10.5699L12.4538 16.3894H26.5172V10.5699H11.9248ZM26.5172 37.4623L26.4917 37.469L20.0106 35.719L19.5963 31.0778H13.7544L14.5697 40.2152L26.4904 43.5243L26.5172 43.517V37.4623Z" fill="#EBEBEB"/>
<path id="Vector_3" d="M40.0244 22.3486L41.0749 10.5699H26.4973V16.3894H34.6973L34.1678 22.3486H26.4973V28.168H33.6633L32.9876 35.7154L26.4971 37.4672V43.5215L38.4273 40.2152L38.5148 39.232L39.8825 23.9113L40.0244 22.3486Z" fill="white"/>
</g>
</g>
<defs>
<clipPath id="clip0_446_893">
<rect width="53" height="53" fill="white" transform="translate(0 0.5)"/>
</clipPath>
</defs>
</svg>
