<svg width="62" height="62" viewBox="0 0 62 62" fill="none" xmlns="http://www.w3.org/2000/svg">
<g id="Figma" clip-path="url(#clip0_446_864)">
<path id="Vector" d="M10.9792 4.99729e-06H51.0208C52.463 -0.00138913 53.8913 0.288926 55.224 0.854334C56.5567 1.41974 57.7675 2.24914 58.7873 3.29507C59.8071 4.341 60.6158 5.58292 61.167 6.94976C61.7183 8.3166 62.0014 9.78152 62 11.2607V50.7393C62.0014 52.2185 61.7183 53.6834 61.167 55.0502C60.6158 56.4171 59.8071 57.659 58.7873 58.7049C57.7675 59.7509 56.5567 60.5803 55.224 61.1457C53.8913 61.7111 52.463 62.0014 51.0208 62H10.9792C9.53698 62.0014 8.10869 61.7111 6.77602 61.1457C5.44335 60.5803 4.23248 59.7509 3.2127 58.7049C2.19292 57.659 1.38425 56.4171 0.832976 55.0502C0.281702 53.6834 -0.0013544 52.2185 4.87236e-06 50.7393V11.2607C-0.0013544 9.78152 0.281702 8.3166 0.832976 6.94976C1.38425 5.58292 2.19292 4.341 3.2127 3.29507C4.23248 2.24914 5.44335 1.41974 6.77602 0.854334C8.10869 0.288926 9.53698 -0.00138913 10.9792 4.99729e-06Z" fill="#000B1D"/>
<g id="Group">
<g id="5">
<g id="path1_fill-link">
<path id="path1_fill" d="M25.0584 49.9101C28.6253 49.9101 31.5168 47.0186 31.5168 43.4517V36.9934H25.0584C21.4916 36.9934 18.6001 39.8849 18.6001 43.4517C18.6001 47.0186 21.4916 49.9101 25.0584 49.9101Z" fill="#0ACF83"/>
</g>
</g>
<g id="4">
<g id="path2_fill-link">
<path id="path2_fill" d="M18.6001 30.535C18.6001 26.9682 21.4916 24.0767 25.0584 24.0767H31.5168V36.9933H25.0584C21.4916 36.9933 18.6001 34.1018 18.6001 30.535Z" fill="#A259FF"/>
</g>
</g>
<g id="3">
<g id="path2_fill-link_2">
<path id="path2_fill_2" d="M18.6001 17.6184C18.6001 14.0515 21.4916 11.16 25.0584 11.16H31.5168V24.0767H25.0584C21.4916 24.0767 18.6001 21.1852 18.6001 17.6184Z" fill="#F24E1E"/>
</g>
</g>
<g id="2">
<g id="path3_fill-link">
<path id="path3_fill" d="M31.5166 11.16H37.9749C41.5418 11.16 44.4333 14.0515 44.4333 17.6184C44.4333 21.1852 41.5418 24.0767 37.9749 24.0767H31.5166V11.16Z" fill="#FF7262"/>
</g>
</g>
<g id="1">
<g id="path4_fill-link">
<path id="path4_fill" d="M44.4333 30.535C44.4333 34.1018 41.5418 36.9933 37.9749 36.9933C34.4081 36.9933 31.5166 34.1018 31.5166 30.535C31.5166 26.9682 34.4081 24.0767 37.9749 24.0767C41.5418 24.0767 44.4333 26.9682 44.4333 30.535Z" fill="#1ABCFE"/>
</g>
</g>
</g>
</g>
<defs>
<clipPath id="clip0_446_864">
<rect width="62" height="62" fill="white"/>
</clipPath>
</defs>
</svg>
