<svg width="73" height="70" viewBox="0 0 73 70" fill="none" xmlns="http://www.w3.org/2000/svg">
<g id="Html 5">
<path id="Vector" d="M62.3543 6.10413H10.646L15.2085 57.8125L36.5002 63.8958L57.7918 57.8125L62.3543 6.10413Z" fill="#E65100"/>
<path id="Vector_2" d="M36.5 10.6666V59.1812L53.5333 54.3145L57.3354 10.6666H36.5Z" fill="#FF6D00"/>
<path id="Vector_3" d="M36.5 36.5209V30.4375H49.5792L48.5146 47.9271L36.5 51.8813V45.4938L42.7354 43.3646L43.1917 36.5209H36.5ZM50.0354 24.3542L50.4917 18.2709H36.5V24.3542H50.0354Z" fill="white"/>
<path id="Vector_4" d="M36.5002 45.4938V51.8813L24.4856 47.9271L23.8773 39.5625H29.9606L30.2648 43.3646L36.5002 45.4938ZM29.0481 24.3542H36.5002V18.2709H22.6606L23.7252 36.5209H36.5002V30.4375H29.5044L29.0481 24.3542Z" fill="#EEEEEE"/>
</g>
</svg>
