<svg width="59" height="60" viewBox="0 0 59 60" fill="none" xmlns="http://www.w3.org/2000/svg">
<g id="JavaScript" clip-path="url(#clip0_446_885)">
<path id="Vector" d="M10.4479 4.83609e-06H48.5521C49.9245 -0.00134432 51.2837 0.279605 52.5519 0.826775C53.82 1.37394 54.9723 2.17659 55.9428 3.18878C56.9132 4.20097 57.6827 5.40283 58.2073 6.72558C58.7319 8.04832 59.0013 9.46599 59 10.8974V49.1026C59.0013 50.534 58.7319 51.9517 58.2073 53.2744C57.6827 54.5972 56.9132 55.799 55.9428 56.8112C54.9723 57.8234 53.82 58.6261 52.5519 59.1732C51.2837 59.7204 49.9245 60.0013 48.5521 60H10.4479C9.07552 60.0013 7.71633 59.7204 6.44815 59.1732C5.17996 58.6261 4.02768 57.8234 3.05724 56.8112C2.08681 55.799 1.31727 54.5972 0.79267 53.2744C0.268072 51.9517 -0.00128886 50.534 4.6366e-06 49.1026V10.8974C-0.00128886 9.46599 0.268072 8.04832 0.79267 6.72558C1.31727 5.40283 2.08681 4.20097 3.05724 3.18878C4.02768 2.17659 5.17996 1.37394 6.44815 0.826775C7.71633 0.279605 9.07552 -0.00134432 10.4479 4.83609e-06Z" fill="#F7DF1E"/>
<path id="Vector_2" d="M39.733 46.9477C40.9214 48.921 42.4676 50.3715 45.2022 50.3715C47.4995 50.3715 48.967 49.2039 48.967 47.5905C48.967 45.6572 47.4592 44.9724 44.9306 43.8477L43.5446 43.2429C39.5438 41.5096 36.886 39.3381 36.886 34.7477C36.886 30.5191 40.0542 27.3 45.0055 27.3C48.5305 27.3 51.0647 28.5477 52.8909 31.8143L48.5736 34.6334C47.6231 32.9 46.5976 32.2172 45.0055 32.2172C43.3816 32.2172 42.3524 33.2648 42.3524 34.6334C42.3524 36.3248 43.3826 37.0096 45.7613 38.0572L47.1473 38.661C51.858 40.7153 54.5176 42.8096 54.5176 47.5181C54.5176 52.5943 50.5965 55.3753 45.3305 55.3753C40.1816 55.3753 36.8551 52.88 35.2274 49.6096L39.733 46.9477ZM20.1478 47.4362C21.0188 49.0077 21.811 50.3362 23.7159 50.3362C25.5374 50.3362 26.6865 49.6115 26.6865 46.7934V27.622H32.2306V46.8696C32.2306 52.7077 28.8648 55.3648 23.9519 55.3648C19.5128 55.3648 16.9421 53.0286 15.6348 50.2148L20.1478 47.4362Z" fill="black"/>
</g>
<defs>
<clipPath id="clip0_446_885">
<rect width="59" height="60" fill="white"/>
</clipPath>
</defs>
</svg>
