<svg width="58" height="58" viewBox="0 0 58 58" fill="none" xmlns="http://www.w3.org/2000/svg">
<g id="React">
<path id="Vector" d="M28.9999 33.0599C31.2422 33.0599 33.0599 31.2422 33.0599 28.9999C33.0599 26.7577 31.2422 24.9399 28.9999 24.9399C26.7577 24.9399 24.9399 26.7577 24.9399 28.9999C24.9399 31.2422 26.7577 33.0599 28.9999 33.0599Z" fill="#39C1D7"/>
<path id="Vector_2" d="M28.9999 33.64C26.4415 33.64 24.3599 31.5584 24.3599 29C24.3599 26.4416 26.4415 24.36 28.9999 24.36C31.5582 24.36 33.6399 26.4416 33.6399 29C33.6399 31.5584 31.5582 33.64 28.9999 33.64ZM28.9999 25.52C27.0806 25.52 25.5199 27.0808 25.5199 29C25.5199 30.9192 27.0806 32.48 28.9999 32.48C30.9191 32.48 32.4799 30.9192 32.4799 29C32.4799 27.0808 30.9191 25.52 28.9999 25.52Z" fill="#1F212B"/>
<path id="Vector_3" d="M51.3299 29C51.3299 25.882 47.575 23.1832 41.7495 21.5772C43.247 15.7215 42.7859 11.1169 40.1098 9.55438C39.0542 8.93784 37.7736 8.82532 36.3039 9.21856C34.0894 9.81132 31.5519 11.5444 28.9999 14.09C26.4479 11.5444 23.9104 9.8119 21.696 9.21856C20.2263 8.82474 18.9456 8.93784 17.89 9.55438C15.2139 11.1169 14.7528 15.7209 16.2504 21.5772C10.4248 23.1832 6.66992 25.882 6.66992 29C6.66992 32.1181 10.4248 34.8169 16.2504 36.4235C14.7528 42.2791 15.2139 46.8838 17.89 48.4463C18.535 48.8227 19.2635 49.0124 20.0685 49.0118C20.5806 49.0118 21.1241 48.9352 21.696 48.7821C23.9104 48.1888 26.4479 46.4563 28.9999 43.9107C31.5519 46.4563 34.0894 48.1888 36.3039 48.7821C36.8757 48.9352 37.4192 49.0118 37.9313 49.0118C38.7364 49.0118 39.4649 48.8233 40.1098 48.4463C42.7859 46.8838 43.2465 42.2791 41.7495 36.4235C47.575 34.8169 51.3299 32.1181 51.3299 29ZM36.7539 10.8988C37.1744 10.7869 37.5642 10.73 37.9232 10.73C38.422 10.73 38.8605 10.8391 39.2323 11.0566C41.0256 12.1041 41.3916 15.9402 40.0559 21.155C38.2155 20.7408 36.2076 20.4294 34.0738 20.2368C32.8215 18.4313 31.5189 16.7876 30.2063 15.348C32.5368 13.0123 34.8231 11.4162 36.7539 10.8988ZM35.2378 32.6535C34.554 33.8517 33.8342 34.9996 33.0959 36.0981C31.7851 36.1961 30.4186 36.25 28.9999 36.25C27.5812 36.25 26.2148 36.1961 24.9045 36.0981C24.1662 34.9996 23.4464 33.8517 22.7626 32.6535C22.0556 31.4146 21.4211 30.1943 20.8527 29.0006C21.4211 27.807 22.0556 26.5867 22.7626 25.3472C23.447 24.1483 24.1662 23.0005 24.9051 21.902C26.2153 21.804 27.5812 21.75 28.9999 21.75C30.4186 21.75 31.7845 21.804 33.0953 21.902C33.8336 23.0005 34.5534 24.1489 35.2378 25.3472C35.9448 26.5861 36.5794 27.8064 37.1478 29.0006C36.5794 30.1943 35.9448 31.4146 35.2378 32.6535ZM38.0734 31.0561C38.6772 32.4835 39.176 33.8575 39.5797 35.1637C38.2602 35.4578 36.8357 35.7031 35.3144 35.8846C35.8027 35.1156 36.2841 34.3291 36.7487 33.5153C37.2191 32.6923 37.6582 31.8716 38.0734 31.0561ZM28.9999 41.3871C28.051 40.3379 27.1039 39.1761 26.1788 37.9193C27.1022 37.9639 28.0418 37.99 28.9999 37.99C29.9581 37.99 30.8977 37.9639 31.821 37.9193C30.8959 39.1756 29.9488 40.3373 28.9999 41.3871ZM22.6849 35.8846C21.1641 35.7031 19.7391 35.4578 18.4196 35.1637C18.8232 33.8575 19.322 32.4829 19.9258 31.0561C20.3411 31.8716 20.7807 32.6923 21.2505 33.5153C21.7157 34.3297 22.1965 35.1161 22.6849 35.8846ZM19.9264 26.9445C19.3226 25.5171 18.8232 24.1425 18.4201 22.8358C19.7396 22.5417 21.1647 22.2964 22.686 22.1149C22.1971 22.8839 21.7163 23.671 21.2517 24.4847C20.7807 25.3083 20.3417 26.129 19.9264 26.9445ZM28.9999 16.6136C29.9488 17.6628 30.8959 18.8245 31.821 20.0814C30.8977 20.0361 29.9581 20.01 28.9999 20.01C28.0418 20.01 27.1022 20.0361 26.1788 20.0808C27.1039 18.8245 28.051 17.6628 28.9999 16.6136ZM36.7487 24.4853C36.2841 23.671 35.8027 22.8845 35.3144 22.1154C36.8357 22.297 38.2602 22.5423 39.5803 22.8364C39.1766 24.1431 38.6778 25.5171 38.074 26.9451C37.6582 26.129 37.2191 25.3083 36.7487 24.4853ZM18.7676 11.0566C19.1399 10.8391 19.5772 10.73 20.0766 10.73C20.4351 10.73 20.826 10.7869 21.2459 10.8988C23.1767 11.4162 25.4631 13.0118 27.7935 15.3474C26.481 16.787 25.1783 18.4313 23.9261 20.2362C21.7923 20.4288 19.7837 20.7403 17.944 21.1544C16.6082 15.9396 16.9742 12.1035 18.7676 11.0566ZM8.40992 29C8.40992 26.9144 11.5425 24.6848 16.7242 23.2575C17.2862 25.0897 18.024 27.0193 18.9317 29C18.024 30.9807 17.2862 32.9104 16.7242 34.7426C11.5425 33.3152 8.40992 31.0857 8.40992 29ZM21.2459 47.1013C20.2408 47.3692 19.4073 47.3164 18.7676 46.9441C16.9742 45.8966 16.6088 42.0605 17.944 36.8457C19.7837 37.2598 21.7923 37.5713 23.9255 37.7638C25.1777 39.5694 26.4804 41.2131 27.7929 42.6532C25.4631 44.9883 23.1767 46.5839 21.2459 47.1013ZM39.2323 46.9441C38.5925 47.3176 37.7597 47.3698 36.7539 47.1013C34.8231 46.5839 32.5368 44.9883 30.2063 42.6527C31.5189 41.2131 32.8215 39.5688 34.0738 37.7633C36.2076 37.5707 38.2155 37.2592 40.0553 36.8451C41.3916 42.0605 41.0256 45.8966 39.2323 46.9441ZM41.2756 34.7426C40.7136 32.9104 39.9758 30.9807 39.0681 29C39.9758 27.0193 40.7136 25.0891 41.2756 23.2575C46.4573 24.6848 49.5899 26.9144 49.5899 29C49.5899 31.0857 46.4573 33.3152 41.2756 34.7426Z" fill="#39C1D7"/>
<path id="Vector_4" d="M20.065 49.3012C19.2118 49.3012 18.4311 49.0976 17.7444 48.6962C15.0578 47.1273 14.3903 42.7361 15.9012 36.6258C9.84538 34.9038 6.37988 32.132 6.37988 29C6.37988 25.868 9.84538 23.0962 15.9006 21.3742C14.3903 15.2639 15.0578 10.8727 17.7444 9.30378C18.8684 8.64606 20.2227 8.5231 21.7713 8.93838C23.9278 9.51606 26.4229 11.154 28.9999 13.6822C31.5774 11.154 34.0726 9.51606 36.2284 8.93838C37.7764 8.52426 39.1313 8.64722 40.2559 9.30378C42.9419 10.8727 43.6095 15.2639 42.0992 21.3742C48.1544 23.0962 51.6199 25.868 51.6199 29C51.6199 32.132 48.1544 34.9038 42.0992 36.6258C43.6095 42.7361 42.9425 47.1267 40.2559 48.6962C39.1383 49.3487 37.7701 49.4746 36.229 49.0616C34.072 48.4839 31.5768 46.846 28.9999 44.3184C26.4229 46.846 23.9278 48.4845 21.7713 49.0616C21.178 49.2205 20.605 49.3012 20.0685 49.3012C20.0673 49.3012 20.0661 49.3012 20.065 49.3012ZM20.0702 9.27942C19.3156 9.27942 18.6353 9.45458 18.0361 9.8049C15.5862 11.2358 15.0236 15.6095 16.531 21.5052C16.5699 21.6584 16.4794 21.815 16.3269 21.8567C10.4619 23.4738 6.95988 26.1447 6.95988 29C6.95988 31.8553 10.4619 34.5262 16.3275 36.1433C16.48 36.185 16.5705 36.3416 16.5316 36.4948C15.0236 42.3905 15.5862 46.7648 18.0361 48.1951C18.6335 48.5437 19.3162 48.7206 20.065 48.7206C20.0661 48.7206 20.0673 48.7206 20.0685 48.7206C20.5545 48.7206 21.0765 48.6469 21.6211 48.5013C23.7364 47.9347 26.2176 46.2765 28.7951 43.7047C28.9082 43.5922 29.0915 43.5922 29.2046 43.7047C31.7821 46.2759 34.2634 47.9341 36.3786 48.5013C37.7672 48.872 38.9799 48.7687 39.9636 48.1951C42.4135 46.7642 42.9761 42.3905 41.4681 36.4948C41.4293 36.3416 41.5198 36.185 41.6723 36.1433C47.5378 34.5262 51.0399 31.8553 51.0399 29C51.0399 26.1447 47.5378 23.4738 41.6723 21.8567C41.5198 21.815 41.4293 21.6584 41.4681 21.5052C42.9756 15.6095 42.413 11.2352 39.963 9.8049C38.9776 9.22896 37.7712 9.1263 36.3781 9.49866C34.2628 10.0653 31.7821 11.7235 29.204 14.2953C29.0909 14.4078 28.9077 14.4078 28.7946 14.2953C26.2165 11.7235 23.7358 10.0653 21.6205 9.49866C21.0748 9.3525 20.5574 9.27942 20.0702 9.27942ZM37.9238 47.5594C37.5392 47.5594 37.1239 47.5003 36.6791 47.3814C34.7471 46.8634 32.4381 45.2997 30.001 42.8574C29.8919 42.7477 29.8879 42.5714 29.9917 42.4572C31.3054 41.0164 32.5982 39.3814 33.8353 37.5979C33.8841 37.5272 33.9618 37.4819 34.0476 37.4744C36.1426 37.2853 38.1424 36.9785 39.992 36.562C40.1434 36.5278 40.2977 36.6206 40.3366 36.7732C41.6914 42.0645 41.3243 46.0578 39.3784 47.194C38.9614 47.4376 38.4748 47.5594 37.9238 47.5594ZM30.6071 42.6422C32.8986 44.9007 35.0458 46.3432 36.8287 46.8211C37.7561 47.0687 38.5159 47.0258 39.0861 46.6935C40.742 45.726 41.0331 42.0111 39.8436 37.189C38.0873 37.5712 36.2029 37.8572 34.235 38.0399C33.0657 39.7172 31.8465 41.2635 30.6071 42.6422ZM20.076 47.5594C19.525 47.5594 19.0384 47.4376 18.6214 47.1946C16.6755 46.0578 16.3077 42.0645 17.6632 36.7732C17.7021 36.6212 17.8563 36.5301 18.0077 36.562C19.8568 36.9785 21.8566 37.2853 23.9521 37.4744C24.0374 37.4819 24.1157 37.5272 24.1644 37.5979C25.4016 39.3814 26.6944 41.0164 28.0081 42.4572C28.1125 42.5714 28.1084 42.7477 27.9988 42.8574C25.5616 45.2992 23.2527 46.8634 21.3213 47.3814C20.8758 47.4997 20.46 47.5594 20.076 47.5594ZM18.1562 37.189C16.9666 42.0106 17.2578 45.726 18.9137 46.6935C19.4832 47.0252 20.243 47.0687 21.171 46.8211C22.954 46.3432 25.1011 44.9001 27.3927 42.6422C26.1538 41.2635 24.9347 39.7172 23.7654 38.0399C21.7974 37.8572 19.9124 37.5712 18.1562 37.189ZM28.9999 41.6765C28.9181 41.6765 28.8398 41.6417 28.7847 41.5808C27.8202 40.5142 26.8649 39.3397 25.945 38.0903C25.8789 38.0004 25.8702 37.8798 25.923 37.7812C25.9758 37.6826 26.0744 37.6223 26.1927 37.6287C28.1102 37.722 29.8896 37.722 31.8071 37.6287C31.9231 37.6217 32.024 37.6826 32.0768 37.7812C32.1296 37.8798 32.1214 37.9999 32.0547 38.0903C31.1349 39.3391 30.1796 40.5136 29.2151 41.5808C29.16 41.6417 29.0817 41.6765 28.9999 41.6765ZM26.7767 38.2359C27.5023 39.1958 28.2482 40.107 28.9999 40.9526C29.7521 40.107 30.4974 39.1964 31.223 38.2359C29.7081 38.2939 28.2917 38.2939 26.7767 38.2359ZM28.9999 36.54C27.6259 36.54 26.2408 36.489 24.8825 36.3875C24.7937 36.3811 24.7131 36.3341 24.6632 36.2599C23.8878 35.1062 23.1633 33.941 22.5103 32.7973C21.8259 31.5978 21.1797 30.3624 20.5905 29.1247C20.5528 29.0458 20.5528 28.9542 20.5905 28.8753C21.1797 27.6376 21.8259 26.4022 22.5103 25.2027C23.1628 24.0601 23.8872 22.8949 24.6638 21.7396C24.7131 21.6659 24.7943 21.6189 24.883 21.612C27.5998 21.409 30.4006 21.409 33.1167 21.612C33.2055 21.6183 33.2861 21.6653 33.336 21.7396C34.1126 22.8949 34.837 24.0601 35.4895 25.2027C36.1739 26.4022 36.82 27.6376 37.4093 28.8753C37.447 28.9542 37.447 29.0458 37.4093 29.1247C36.82 30.3624 36.1739 31.5978 35.4895 32.7973C34.8364 33.941 34.112 35.1062 33.3365 36.2599C33.2872 36.3335 33.206 36.3805 33.1173 36.3875C31.7589 36.489 30.3739 36.54 28.9999 36.54ZM25.0663 35.8191C27.6641 36.0058 30.3356 36.0058 32.9329 35.8191C33.6712 34.7153 34.3614 33.6023 34.9855 32.509C35.6397 31.3623 36.2586 30.1826 36.8258 29C36.2586 27.8174 35.6397 26.6371 34.9855 25.491C34.362 24.3989 33.6718 23.2858 32.9323 22.1804C30.3345 21.9936 27.6636 21.9936 25.0657 22.1804C24.3268 23.2858 23.636 24.3989 23.0125 25.491C22.3583 26.6377 21.7394 27.8174 21.1722 29C21.7394 30.1826 22.3583 31.3629 23.0125 32.509C23.6378 33.6029 24.328 34.7153 25.0663 35.8191ZM35.3149 36.1752C35.2163 36.1752 35.1229 36.1247 35.0696 36.04C35.0098 35.9449 35.0104 35.8243 35.0702 35.7297C35.6084 34.8824 36.0753 34.111 36.497 33.372C36.9401 32.596 37.3832 31.7724 37.8153 30.925C37.8663 30.8247 37.9736 30.7649 38.0838 30.7673C38.1964 30.7713 38.2967 30.8398 38.3408 30.9442C38.9295 32.3356 39.4393 33.727 39.8569 35.079C39.8813 35.1561 39.8714 35.2402 39.8308 35.3098C39.7902 35.38 39.7218 35.4299 39.6429 35.4473C38.2799 35.7518 36.8351 35.996 35.3491 36.1734C35.3375 36.1746 35.3259 36.1752 35.3149 36.1752ZM38.0456 31.744C37.701 32.404 37.3507 33.0461 37.001 33.6591C36.6628 34.2519 36.2957 34.865 35.8874 35.5204C37.03 35.3684 38.1436 35.1764 39.209 34.9479C38.8744 33.8958 38.4846 32.8222 38.0456 31.744ZM22.6848 36.1752C22.6732 36.1752 22.6616 36.1746 22.65 36.1734C21.1647 35.9954 19.7199 35.7512 18.3569 35.4467C18.278 35.4293 18.2101 35.3794 18.169 35.3092C18.1284 35.2391 18.1191 35.1555 18.1429 35.0784C18.5605 33.7258 19.0703 32.335 19.659 30.9436C19.7031 30.8398 19.8034 30.7707 19.9159 30.7667C20.0215 30.7557 20.1334 30.8241 20.1845 30.9244C20.6166 31.7718 21.0597 32.5954 21.5028 33.3715C21.925 34.1104 22.3919 34.8818 22.9296 35.7292C22.9899 35.8237 22.9899 35.9443 22.9302 36.0395C22.8768 36.1247 22.784 36.1752 22.6848 36.1752ZM18.7913 34.9479C19.8568 35.1764 20.9704 35.3684 22.113 35.5204C21.7041 34.865 21.3375 34.2519 20.9994 33.6591C20.649 33.0461 20.2993 32.4034 19.9548 31.744C19.5151 32.8222 19.1254 33.8958 18.7913 34.9479ZM41.2756 35.0326C41.1509 35.0326 41.0366 34.952 40.9983 34.8273C40.4328 32.9834 39.6945 31.0636 38.8048 29.1212C38.7694 29.0447 38.7694 28.9559 38.8048 28.8794C39.6945 26.9369 40.4328 25.0166 40.9989 23.1722C41.0453 23.0219 41.2042 22.9378 41.3533 22.9779C46.6127 24.4273 49.8799 26.7345 49.8799 29C49.8799 31.2655 46.6122 33.5727 41.3521 35.0221C41.3266 35.0291 41.3005 35.0326 41.2756 35.0326ZM39.3871 29C40.22 30.8299 40.92 32.6407 41.4687 34.387C46.2357 33.0281 49.2999 30.9268 49.2999 29C49.2999 27.0732 46.2357 24.9719 41.4687 23.613C40.9195 25.3599 40.2194 27.1707 39.3871 29ZM16.7242 35.0326C16.6987 35.0326 16.6731 35.0291 16.647 35.0221C11.3876 33.5727 8.11988 31.2655 8.11988 29C8.11988 26.7345 11.387 24.4273 16.647 22.9779C16.7967 22.9378 16.955 23.0219 17.0014 23.1722C17.5675 25.0166 18.3058 26.9369 19.1956 28.8794C19.2309 28.9559 19.2309 29.0441 19.1956 29.1212C18.3053 31.0642 17.5675 32.984 17.002 34.8273C16.9637 34.952 16.8489 35.0326 16.7242 35.0326ZM16.531 23.613C11.764 24.9719 8.69988 27.0732 8.69988 29C8.69988 30.9268 11.764 33.0281 16.531 34.387C17.0803 32.6407 17.7798 30.8305 18.6127 29C17.7804 27.1707 17.0803 25.3599 16.531 23.613ZM38.074 27.2351C37.9649 27.2351 37.8652 27.1742 37.8153 27.0767C37.3762 26.2137 36.9447 25.4127 36.4975 24.6291C36.0765 23.8914 35.6096 23.12 35.0702 22.2708C35.0098 22.1763 35.0098 22.0557 35.0696 21.9605C35.1293 21.866 35.236 21.8138 35.3497 21.8271C36.8363 22.0052 38.281 22.2494 39.644 22.5533C39.7229 22.5707 39.7908 22.6206 39.832 22.6908C39.8726 22.7609 39.8818 22.8445 39.8581 22.9216C39.4399 24.2765 38.9295 25.6679 38.3419 27.0576C38.2979 27.1614 38.1975 27.2304 38.085 27.2345C38.0804 27.2351 38.0769 27.2351 38.074 27.2351ZM37.0004 24.3414C37.3548 24.962 37.6993 25.5931 38.045 26.2566C38.4835 25.1801 38.8732 24.1054 39.2079 23.0521C38.1424 22.8236 37.0288 22.6316 35.8856 22.4796C36.2963 23.1362 36.6628 23.7493 37.0004 24.3414ZM19.9258 27.2351C19.9223 27.2351 19.9188 27.2351 19.9153 27.2351C19.8028 27.231 19.7025 27.1626 19.6584 27.0582C19.0709 25.6685 18.5605 24.2771 18.1423 22.9222C18.1179 22.845 18.1278 22.7609 18.1684 22.6913C18.209 22.6212 18.2774 22.5713 18.3563 22.5539C19.7193 22.2494 21.1641 22.0052 22.6506 21.8277C22.7637 21.8161 22.871 21.8666 22.9308 21.9611C22.9905 22.0562 22.9899 22.1769 22.9302 22.2714C22.3908 23.1205 21.9239 23.8919 21.5028 24.6297C21.0556 25.4133 20.6241 26.2137 20.185 27.0773C20.1346 27.1742 20.0348 27.2351 19.9258 27.2351ZM18.7913 23.0521C19.126 24.1054 19.5163 25.1801 19.9542 26.2566C20.3005 25.5931 20.6444 24.962 20.9988 24.3414C21.3369 23.7493 21.7035 23.1362 22.113 22.4796C20.9704 22.6316 19.8568 22.8236 18.7913 23.0521ZM40.0564 21.4449C40.035 21.4449 40.0141 21.4426 39.9926 21.438C38.1436 21.0215 36.1432 20.7147 34.0476 20.5256C33.9624 20.5181 33.8841 20.4728 33.8353 20.4021C32.5982 18.618 31.3048 16.9836 29.9917 15.5434C29.8873 15.4292 29.8913 15.2528 30.001 15.1432C32.4375 12.7014 34.7471 11.1366 36.6791 10.6192C37.7631 10.3292 38.6731 10.3948 39.3784 10.806C41.3243 11.9428 41.692 15.9361 40.3371 21.2274C40.3035 21.3573 40.1863 21.4449 40.0564 21.4449ZM34.2344 19.9601C36.2023 20.1428 38.0873 20.4288 39.8436 20.811C41.0331 15.9894 40.742 12.274 39.0855 11.3065C38.5177 10.9753 37.7567 10.9318 36.8287 11.1789C35.0458 11.6568 32.8981 13.0999 30.6065 15.3584C31.8459 16.7359 33.0651 18.2822 34.2344 19.9601ZM17.9433 21.4449C17.8134 21.4449 17.6963 21.3573 17.6626 21.2268C16.3077 15.9355 16.6749 11.9428 18.6208 10.806C19.3261 10.3948 20.2378 10.3292 21.3201 10.6192C23.2527 11.1372 25.5616 12.7014 27.9982 15.1432C28.1073 15.2528 28.1113 15.4292 28.0075 15.5434C26.6944 16.9836 25.401 18.6186 24.1638 20.4021C24.1151 20.4728 24.0374 20.5181 23.9516 20.5256C21.8566 20.7147 19.8562 21.0215 18.0066 21.438C17.9857 21.4426 17.9648 21.4449 17.9433 21.4449ZM18.9137 11.3065C17.2578 12.274 16.9666 15.9894 18.1556 20.811C19.9119 20.4288 21.7969 20.1428 23.7648 19.9601C24.9347 18.2822 26.1532 16.7359 27.3921 15.3578C25.1005 13.0993 22.9534 11.6563 21.1699 11.1783C20.2459 10.9318 19.4838 10.9748 18.9137 11.3065ZM31.821 20.3708C31.8164 20.3708 31.8117 20.3708 31.8071 20.3708C29.8896 20.2774 28.1107 20.2774 26.1933 20.3708C26.0738 20.3737 25.9763 20.3162 25.9236 20.2182C25.8708 20.1196 25.8789 19.9996 25.9456 19.9091C26.8661 18.6592 27.8213 17.4847 28.7853 16.4186C28.8955 16.2974 29.1054 16.2974 29.2156 16.4186C30.179 17.4841 31.1343 18.6586 32.0553 19.9091C32.1214 19.999 32.1301 20.1196 32.0774 20.2182C32.0257 20.3122 31.9271 20.3708 31.821 20.3708ZM28.9999 19.72C29.7202 19.72 30.4655 19.7351 31.223 19.7647C30.4969 18.8036 29.751 17.8924 28.9999 17.0479C28.2488 17.893 27.5029 18.8036 26.7767 19.7647C27.5342 19.7351 28.2795 19.72 28.9999 19.72Z" fill="#1F212B"/>
</g>
</svg>
